# File created by Blade
# Date/Time:  Thu Jan 15 19:03:44 2015
#---------------------------------------------------------
:version 1.10
:name HOM
:units
  mass 1.0
  length 1.000000
  angle deg
:documentation
     Acclaim Skeleton File
:root
   axis xyz
   order TX TY TZ RX RY RZ
   position 0.000000 0.000000 0.000000
   orientation 0 0 0
:bonedata
   begin
      id 1
      name Spine_dum
      direction 0.000000 1.000000 0.000000
      length 4.354460
      axis 0.0 0.0 0.0 xyz
   end
   begin
      id 2
      name LeftUpLeg_dum
      direction 1.000000 0.000000 0.000000
      length 4.291077
      axis 0.0 0.0 0.0 xyz
   end
   begin
      id 3
      name RightUpLeg_dum
      direction -1.000000 0.000000 0.000000
      length 4.291077
      axis 0.0 0.0 0.0 xyz
   end
   begin
      id 4
      name Spine
      direction 0.000000 1.000000 0.000000
      length 0.000000
      axis 0.0 0.0 0.0 xyz
      dof rx ry rz
   end
   begin
      id 5
      name Spine_dum1
      direction 0.000000 1.000000 0.000000
      length 16.581769
      axis 0.0 0.0 0.0 xyz
   end
   begin
      id 6
      name Spine_dum2
      direction 0.000000 1.000000 0.000000
      length 12.903700
      axis 0.0 0.0 0.0 xyz
   end
   begin
      id 7
      name Spine_dum3
      direction 0.000000 1.000000 0.000000
      length 12.903700
      axis 0.0 0.0 0.0 xyz
   end
   begin
      id 8
      name Head
      direction 0.000000 1.000000 0.000000
      length 4.527550
      axis 0.0 0.0 0.0 xyz
      dof rx ry rz
   end
   begin
      id 9
      name LeftShoulder
      direction 1.000000 0.000000 0.000000
      length 6.942033
      axis 0.0 0.0 -90.0 xyz
      dof rx ry rz
   end
   begin
      id 10
      name LeftArm
      direction 1.000000 0.000000 0.000000
      length 11.010391
      axis 0.0 0.0 -90.0 xyz
      dof rx ry rz
   end
   begin
      id 11
      name LeftForeArm
      direction 1.000000 0.000000 0.000000
      length 8.054994
      axis 0.0 0.0 -90.0 xyz
      dof rz ry rx
   end
   begin
      id 12
      name LeftHand
      direction 0.000000 0.000000 0.000000
      length 0.000000
      axis 0.0 0.0 -90.0 xyz
      dof rx ry rz
   end
   begin
      id 13
      name LeftHand_dum1
      direction 0.000000 0.000000 0.000000
      length 0.000000
      axis 0.0 0.0 -90.0 xyz
   end
   begin
      id 14
      name LeftHand_dum2
      direction 1.000000 0.000000 0.000000
      length 3.937000
      axis 0.0 0.0 -90.0 xyz
   end
   begin
      id 15
      name LeftHandThumb1
      direction 0.000000 0.000000 1.000000
      length 3.937000
      axis 0.0 0.0 -90.0 xyz
      dof rx ry rz
   end
   begin
      id 16
      name RightShoulder
      direction -1.000000 0.000000 0.000000
      length 6.942033
      axis 0.0 0.0 90.0 xyz
      dof rx ry rz
   end
   begin
      id 17
      name RightArm
      direction -1.000000 0.000000 0.000000
      length 11.010391
      axis 0.0 0.0 90.0 xyz
      dof rx ry rz
   end
   begin
      id 18
      name RightForeArm
      direction -1.000000 0.000000 0.000000
      length 8.054994
      axis 0.0 0.0 90.0 xyz
      dof rz ry rx
   end
   begin
      id 19
      name RightHand
      direction 0.000000 0.000000 0.000000
      length 0.000000
      axis 0.0 0.0 90.0 xyz
      dof rx ry rz
   end
   begin
      id 20
      name RightHand_dum1
      direction 0.000000 0.000000 0.000000
      length 0.000000
      axis 0.0 0.0 90.0 xyz
   end
   begin
      id 21
      name RightHand_dum2
      direction -1.000000 0.000000 0.000000
      length 3.937000
      axis 0.0 0.0 90.0 xyz
   end
   begin
      id 22
      name RightHandThumb1
      direction 0.000000 0.000000 1.000000
      length 3.937000
      axis 0.0 0.0 90.0 xyz
      dof rx ry rz
   end
   begin
      id 23
      name LeftUpLeg
      direction 0.000000 -1.000000 0.000000
      length 17.039958
      axis 0.0 0.0 0.0 xyz
      dof rx ry rz
   end
   begin
      id 24
      name LeftLeg
      direction 0.000000 -1.000000 0.000000
      length 16.939743
      axis 0.0 0.0 0.0 xyz
      dof rx ry rz
   end
   begin
      id 25
      name LeftFoot
      direction 0.000000 -0.258819 0.965926
      length 5.235044
      axis 15.0 0.0 0.0 xyz
      dof rx ry rz
   end
   begin
      id 26
      name LeftToeBase
      direction 0.000000 0.000000 1.000000
      length 2.952750
      axis 0.0 0.0 0.0 xyz
      dof rx ry rz
   end
   begin
      id 27
      name RightUpLeg
      direction 0.000000 -1.000000 0.000000
      length 17.039958
      axis 0.0 0.0 0.0 xyz
      dof rx ry rz
   end
   begin
      id 28
      name RightLeg
      direction 0.000000 -1.000000 0.000000
      length 16.939743
      axis 0.0 0.0 0.0 xyz
      dof rx ry rz
   end
   begin
      id 29
      name RightFoot
      direction 0.000000 -0.258819 0.965926
      length 5.235044
      axis 15.0 0.0 0.0 xyz
      dof rx ry rz
   end
   begin
      id 30
      name RightToeBase
      direction 0.000000 0.000000 1.000000
      length 2.952750
      axis 0.0 0.0 0.0 xyz
      dof rx ry rz
   end
:hierarchy
   begin
      root Spine_dum LeftUpLeg_dum RightUpLeg_dum
      Spine_dum Spine
      LeftUpLeg_dum LeftUpLeg
      RightUpLeg_dum RightUpLeg
      Spine Spine_dum1 Spine_dum2 Spine_dum3
      Spine_dum1 Head
      Spine_dum2 LeftShoulder
      Spine_dum3 RightShoulder
      LeftShoulder LeftArm
      LeftArm LeftForeArm
      LeftForeArm LeftHand
      LeftHand LeftHand_dum1 LeftHand_dum2
      LeftHand_dum1 LeftHandThumb1
      RightShoulder RightArm
      RightArm RightForeArm
      RightForeArm RightHand
      RightHand RightHand_dum1 RightHand_dum2
      RightHand_dum1 RightHandThumb1
      LeftUpLeg LeftLeg
      LeftLeg LeftFoot
      LeftFoot LeftToeBase
      RightUpLeg RightLeg
      RightLeg RightFoot
      RightFoot RightToeBase
   end

# File created by Blade
# Date/Time:  Thu Jan 15 19:03:33 2015
# Frame Rate: 120.000 fps
#------------------------------------------------------
:FULLY-SPECIFIED
:DEGREES
680
root 2.821127 35.688624 -11.285267 -170.670664 41.958368 -174.161795
Spine -7.179917 -15.526312 0.700125
Head 2.338461 -15.603079 19.696465
LeftShoulder -3.861877 10.411278 18.578803
LeftArm 15.152268 -37.239553 -21.448996
LeftForeArm -0.000000 18.401876 10.283363
LeftHand 8.463366 -0.000000 6.747805
LeftHandThumb1 -26.253704 33.147579 0.000000
RightShoulder -28.163063 -2.016822 -13.270867
RightArm -8.121864 31.637642 16.549088
RightForeArm -0.000000 -52.914257 35.670222
RightHand 8.962485 -0.000000 -7.416429
RightHandThumb1 -24.326973 -32.862282 -0.000000
LeftUpLeg 5.315415 35.492428 -0.632924
LeftLeg -4.764970 -0.000000 0.000000
LeftFoot -23.929389 35.337701 -18.513826
LeftToeBase 19.416479 -0.000000 -0.000000
RightUpLeg -7.255298 15.960112 0.410713
RightLeg 0.643105 -0.000000 -0.000000
RightFoot -9.218964 -6.012799 10.828348
RightToeBase 19.548353 -0.000000 -0.000000
681
root 2.805668 35.688432 -11.273878 -170.698266 42.502796 -174.092646
Spine -7.048759 -16.097217 0.673564
Head 2.261429 -15.549974 19.730948
LeftShoulder -3.822738 10.319326 18.583613
LeftArm 15.451580 -37.073153 -21.614024
LeftForeArm 0.000000 18.389103 10.595947
LeftHand 8.195030 -0.000000 6.978676
LeftHandThumb1 -26.253704 33.147579 0.000000
RightShoulder -28.219507 -2.045822 -13.345867
RightArm -8.545293 31.580692 16.590099
RightForeArm -0.000000 -52.926191 35.811120
RightHand 8.910186 -0.000000 -7.465466
RightHandThumb1 -24.326973 -32.862282 -0.000000
LeftUpLeg 5.406547 35.645902 -0.633539
LeftLeg -4.711168 -0.000000 0.000000
LeftFoot -24.098635 35.633654 -18.635702
LeftToeBase 19.464097 -0.000000 -0.000000
RightUpLeg -7.343209 16.318868 0.375839
RightLeg 0.785423 -0.000000 -0.000000
RightFoot -9.151930 -5.793282 10.903972
RightToeBase 19.567969 -0.000000 -0.000000
682
root 2.789719 35.688642 -11.265341 -170.747901 42.982726 -174.041357
Spine -6.907688 -16.706314 0.653701
Head 2.138449 -15.525677 19.741665
LeftShoulder -3.745033 10.230634 18.560122
LeftArm 15.653854 -36.984378 -21.753011
LeftForeArm -0.000000 18.349394 10.972911
LeftHand 8.236873 -0.000000 6.759584
LeftHandThumb1 -26.253704 33.147579 0.000000
RightShoulder -28.302315 -2.181111 -13.367016
RightArm -8.890126 31.637771 16.653455
RightForeArm -0.000000 -52.948756 35.901586
RightHand 8.835866 -0.000000 -7.434731
RightHandThumb1 -24.326973 -32.862282 -0.000000
LeftUpLeg 5.496624 35.744160 -0.636205
LeftLeg -4.641341 -0.000000 0.000000
LeftFoot -24.260776 35.907702 -18.763180
LeftToeBase 19.498835 -0.000000 -0.000000
RightUpLeg -7.391873 16.594956 0.340540
RightLeg 0.893207 -0.000000 -0.000000
RightFoot -9.079667 -5.540970 10.958144
RightToeBase 19.627077 -0.000000 -0.000000
683
root 2.776492 35.689412 -11.256599 -170.791521 43.482069 -173.997267
Spine -6.786048 -17.284383 0.617177
Head 2.059241 -15.437552 19.779385
LeftShoulder -3.698614 10.152517 18.513846
LeftArm 15.905368 -36.862653 -21.889155
LeftForeArm -0.000000 18.379209 11.328629
LeftHand 8.349052 0.000000 6.827073
LeftHandThumb1 -26.253704 33.147579 0.000000
RightShoulder -28.343306 -2.239766 -13.463299
RightArm -9.359119 31.665749 16.715793
RightForeArm 0.000000 -52.995421 36.061116
RightHand 8.771593 -0.000000 -7.465875
RightHandThumb1 -24.326973 -32.862282 -0.000000
LeftUpLeg 5.566701 35.825527 -0.650399
LeftLeg -4.544219 -0.000000 0.000000
LeftFoot -24.486941 36.179331 -18.978482
LeftToeBase 19.525993 -0.000000 -0.000000
RightUpLeg -7.460818 16.921334 0.296689
RightLeg 1.014293 -0.000000 -0.000000
RightFoot -9.009202 -5.347427 11.044379
RightToeBase 19.609366 -0.000000 -0.000000
684
root 2.766258 35.689674 -11.253520 -170.837212 44.019437 -173.948668
Spine -6.682979 -17.815401 0.595539
Head 2.001331 -15.383027 19.748532
LeftShoulder -3.689587 10.094289 18.448964
LeftArm 16.207451 -36.707866 -22.084891
LeftForeArm -0.000000 18.401376 11.712134
LeftHand 8.115776 -0.000000 6.931713
LeftHandThumb1 -26.253704 33.147579 0.000000
RightShoulder -28.348911 -2.298775 -13.598029
RightArm -9.864075 31.645925 16.756844
RightForeArm -0.000000 -53.020186 36.169393
RightHand 8.684308 -0.000000 -7.464085
RightHandThumb1 -24.326973 -32.862282 -0.000000
LeftUpLeg 5.677444 36.032843 -0.646621
LeftLeg -4.474240 -0.000000 0.000000
LeftFoot -24.639588 36.387664 -19.144147
LeftToeBase 19.487499 -0.000000 -0.000000
RightUpLeg -7.522482 17.244270 0.253094
RightLeg 1.146482 -0.000000 -0.000000
RightFoot -8.946512 -5.086086 11.122413
RightToeBase 19.610791 -0.000000 -0.000000
685
root 2.754418 35.689994 -11.248218 -170.884408 44.560276 -173.913861
Spine -6.578246 -18.312695 0.562058
Head 1.906732 -15.300012 19.732539
LeftShoulder -3.664593 10.047340 18.406096
LeftArm 16.589345 -36.812127 -22.440596
LeftForeArm 0.000000 18.743491 12.046958
LeftHand 8.244550 -0.000000 6.916298
LeftHandThumb1 -26.253704 33.147579 0.000000
RightShoulder -28.393398 -2.503170 -13.658195
RightArm -10.266778 31.795569 16.868835
RightForeArm -0.000000 -53.080718 36.252159
RightHand 8.730116 -0.000000 -7.482320
RightHandThumb1 -24.326973 -32.862282 -0.000000
LeftUpLeg 5.753988 36.197164 -0.664126
LeftLeg -4.367095 -0.000000 0.000000
LeftFoot -24.816471 36.625602 -19.333045
LeftToeBase 19.431106 -0.000000 -0.000000
RightUpLeg -7.596721 17.515460 0.210332
RightLeg 1.283192 -0.000000 -0.000000
RightFoot -8.878289 -4.824623 11.111713
RightToeBase 19.662676 -0.000000 -0.000000
686
root 2.741097 35.690306 -11.243120 -170.897895 45.089580 -173.877391
Spine -6.520699 -18.812600 0.554130
Head 1.845035 -15.261807 19.683153
LeftShoulder -3.658873 9.955643 18.305248
LeftArm 16.845469 -36.548084 -22.598307
LeftForeArm -0.000000 18.788485 12.426993
LeftHand 8.230184 -0.000000 7.019305
LeftHandThumb1 -26.253704 33.147579 0.000000
RightShoulder -28.401883 -2.630257 -13.794085
RightArm -10.720306 31.881429 16.970885
RightForeArm 0.000000 -53.150898 36.338086
RightHand 8.626737 -0.000000 -7.340905
RightHandThumb1 -24.326973 -32.862282 -0.000000
LeftUpLeg 5.787363 36.357587 -0.703220
LeftLeg -4.258366 -0.000000 0.000000
LeftFoot -25.009498 36.846578 -19.531791
LeftToeBase 19.458991 -0.000000 -0.000000
RightUpLeg -7.709222 17.764177 0.156694
RightLeg 1.422154 -0.000000 -0.000000
RightFoot -8.794017 -4.527654 11.149480
RightToeBase 19.639642 -0.000000 -0.000000
687
root 2.730009 35.690187 -11.237582 -170.925281 45.628438 -173.836695
Spine -6.450627 -19.276093 0.529758
Head 1.787895 -15.186214 19.676970
LeftShoulder -3.682071 9.923249 18.206537
LeftArm 17.247159 -36.353878 -22.837294
LeftForeArm -0.000000 18.899290 12.725763
LeftHand 8.101191 0.000000 7.241489
LeftHandThumb1 -26.253704 33.147579 0.000000
RightShoulder -28.426704 -2.842169 -13.855557
RightArm -11.126600 32.002702 17.052936
RightForeArm -0.000000 -53.178019 36.328992
RightHand 8.707964 -0.000000 -7.268199
RightHandThumb1 -24.326973 -32.862282 -0.000000
LeftUpLeg 5.836020 36.536751 -0.719257
LeftLeg -4.124069 -0.000000 0.000000
LeftFoot -25.196206 37.055491 -19.718264
LeftToeBase 19.431620 -0.000000 -0.000000
RightUpLeg -7.805393 18.006319 0.121733
RightLeg 1.574712 -0.000000 -0.000000
RightFoot -8.755861 -4.264002 11.128807
RightToeBase 19.806802 -0.000000 -0.000000
688
root 2.718373 35.691480 -11.232214 -170.930536 46.185874 -173.788789
Spine -6.407367 -19.695571 0.509464
Head 1.769987 -15.155919 19.651400
LeftShoulder -3.689835 9.839411 18.118858
LeftArm 17.607174 -36.158187 -23.086851
LeftForeArm 0.000000 18.992771 13.052269
LeftHand 8.190927 0.000000 7.094693
LeftHandThumb1 -26.253704 33.147579 0.000000
RightShoulder -28.439930 -2.954023 -13.984018
RightArm -11.579309 32.119623 17.136545
RightForeArm 0.000000 -53.260150 36.333712
RightHand 8.688534 -0.000000 -7.314942
RightHandThumb1 -24.326973 -32.862282 -0.000000
LeftUpLeg 5.870946 36.754905 -0.742878
LeftLeg -3.999537 -0.000000 0.000000
LeftFoot -25.378479 37.242176 -19.917635
LeftToeBase 19.416341 -0.000000 -0.000000
RightUpLeg -7.914752 18.258286 0.083929
RightLeg 1.706364 -0.000000 -0.000000
RightFoot -8.661701 -3.992120 11.162608
RightToeBase 19.764247 -0.000000 -0.000000
689
root 2.709284 35.692453 -11.229687 -170.962935 46.722552 -173.747487
Spine -6.349029 -20.084386 0.484824
Head 1.707214 -15.159160 19.639349
LeftShoulder -3.632883 9.759193 18.023304
LeftArm 17.886777 -35.891499 -23.287528
LeftForeArm -0.000000 19.043020 13.412505
LeftHand 8.131925 -0.000000 7.211634
LeftHandThumb1 -26.253704 33.147579 0.000000
RightShoulder -28.461843 -3.157068 -14.091690
RightArm -12.023643 32.315952 17.236095
RightForeArm 0.000000 -53.376989 36.323570
RightHand 8.746329 -0.000000 -7.199836
RightHandThumb1 -24.326973 -32.862282 -0.000000
LeftUpLeg 5.915026 36.932322 -0.751562
LeftLeg -3.829027 -0.000000 0.000000
LeftFoot -25.592585 37.433759 -20.147871
LeftToeBase 19.364959 -0.000000 -0.000000
RightUpLeg -7.974337 18.498361 0.055045
RightLeg 1.804627 -0.000000 -0.000000
RightFoot -8.564826 -3.732230 11.167444
RightToeBase 19.810536 -0.000000 -0.000000
690
root 2.699596 35.692943 -11.224621 -170.970774 47.237293 -173.697309
Spine -6.311526 -20.518353 0.478244
Head 1.700299 -15.121670 19.616271
LeftShoulder -3.644273 9.735776 17.912210
LeftArm 18.223564 -35.747987 -23.521302
LeftForeArm -0.000000 19.432925 13.706210
LeftHand 8.324713 -0.000000 7.048605
LeftHandThumb1 -26.253704 33.147579 0.000000
RightShoulder -28.462441 -3.312277 -14.191699
RightArm -12.410607 32.468138 17.305099
RightForeArm -0.000000 -53.482506 36.195602
RightHand 8.898237 -0.000000 -7.141174
RightHandThumb1 -24.326973 -32.862282 -0.000000
LeftUpLeg 5.927424 37.087373 -0.764881
LeftLeg -3.651119 -0.000000 0.000000
LeftFoot -25.817099 37.624648 -20.366517
LeftToeBase 19.380809 -0.000000 -0.000000
RightUpLeg -8.060143 18.740980 0.027884
RightLeg 1.916387 -0.000000 -0.000000
RightFoot -8.481869 -3.486417 11.203094
RightToeBase 19.857705 -0.000000 -0.000000
691
root 2.692061 35.693696 -11.219595 -170.949888 47.759151 -173.635601
Spine -6.311643 -20.876345 0.474247
Head 1.707596 -15.151953 19.612197
LeftShoulder -3.619330 9.699576 17.849654
LeftArm 18.595165 -35.484140 -23.812598
LeftForeArm -0.000000 19.573738 13.998430
LeftHand 8.402601 0.000000 7.125959
LeftHandThumb1 -26.253704 33.147579 0.000000
RightShoulder -28.537976 -3.557919 -14.205278
RightArm -12.724842 32.428317 17.368433
RightForeArm -0.000000 -53.414480 36.130824
RightHand 8.849960 -0.000000 -6.964964
RightHandThumb1 -24.326973 -32.862282 -0.000000
LeftUpLeg 5.913981 37.198203 -0.787703
LeftLeg -3.469288 -0.000000 0.000000
LeftFoot -26.064271 37.860287 -20.614238
LeftToeBase 19.324628 -0.000000 -0.000000
RightUpLeg -8.148560 19.012461 0.002352
RightLeg 1.992938 -0.000000 -0.000000
RightFoot -8.372455 -3.274344 11.246193
RightToeBase 19.855059 -0.000000 -0.000000
